{
    "asset" : {
        "generator" : "Khronos glTF Blender I/O v1.3.48",
        "version" : "2.0"
    },
    "scene" : 0,
    "scenes" : [
        {
            "name" : "Scene",
            "nodes" : [
                0,
                1,
                4,
                5
            ]
        }
    ],
    "nodes" : [
        {
            "name" : "Light",
            "rotation" : [
                0.16907575726509094,
                0.7558803558349609,
                -0.27217137813568115,
                0.570947527885437
            ],
            "translation" : [
                1.1183717250823975,
                0.9359288215637207,
                -1.9221975803375244
            ]
        },
        {
            "name" : "Camera",
            "rotation" : [
                0.483536034822464,
                0.33687159419059753,
                -0.20870360732078552,
                0.7804827094078064
            ],
            "translation" : [
                7.358891487121582,
                4.958309173583984,
                6.925790786743164
            ]
        },
        {
            "mesh" : 0,
            "name" : "Clubhead",
            "translation" : [
                0.02074396051466465,
                -0.010435283184051514,
                -0.010379459708929062
            ]
        },
        {
            "mesh" : 1,
            "name" : "Grip",
            "translation" : [
                -1.315050758421421e-05,
                0.6604097485542297,
                3.6277982871979475e-05
            ]
        },
        {
            "children" : [
                2,
                3
            ],
            "mesh" : 2,
            "name" : "Shaft",
            "rotation" : [
                0.7071068286895752,
                0,
                0,
                0.7071068286895752
            ],
            "translation" : [
                -0.00021762269898317754,
                -0.011041535064578056,
                -0.7738833427429199
            ]
        },
        {
            "mesh" : 3,
            "name" : "Cube",
            "translation" : [
                0.00019901528139598668,
                -4.706438630819321e-06,
                1.6764417523518205e-05
            ]
        }
    ],
    "materials" : [
        {
            "doubleSided" : true,
            "emissiveFactor" : [
                0,
                0,
                0
            ],
            "name" : "Material.004",
            "pbrMetallicRoughness" : {
                "baseColorFactor" : [
                    0.800000011920929,
                    0.800000011920929,
                    0.800000011920929,
                    1
                ],
                "metallicFactor" : 0,
                "roughnessFactor" : 0.5
            }
        },
        {
            "doubleSided" : true,
            "emissiveFactor" : [
                0,
                0,
                0
            ],
            "name" : "Material.002",
            "pbrMetallicRoughness" : {
                "baseColorTexture" : {
                    "index" : 0,
                    "texCoord" : 0
                },
                "metallicFactor" : 0,
                "roughnessFactor" : 0.9054054021835327
            }
        },
        {
            "doubleSided" : true,
            "emissiveFactor" : [
                0,
                0,
                0
            ],
            "name" : "Material.001",
            "pbrMetallicRoughness" : {
                "baseColorFactor" : [
                    0.6579018831253052,
                    0.6579018831253052,
                    0.6579018831253052,
                    1
                ],
                "metallicFactor" : 0.7722007632255554,
                "roughnessFactor" : 0.06370657682418823
            }
        },
        {
            "doubleSided" : true,
            "emissiveFactor" : [
                0,
                0,
                0
            ],
            "name" : "Material.003",
            "pbrMetallicRoughness" : {
                "baseColorFactor" : [
                    0.14405952394008636,
                    0.27974405884742737,
                    0.8000000715255737,
                    1
                ],
                "metallicFactor" : 0,
                "roughnessFactor" : 0.5
            }
        }
    ],
    "meshes" : [
        {
            "name" : "Cube.004",
            "primitives" : [
                {
                    "attributes" : {
                        "POSITION" : 0,
                        "NORMAL" : 1,
                        "TEXCOORD_0" : 2
                    },
                    "indices" : 3,
                    "material" : 0
                }
            ]
        },
        {
            "name" : "Circle.004",
            "primitives" : [
                {
                    "attributes" : {
                        "POSITION" : 4,
                        "NORMAL" : 5,
                        "TEXCOORD_0" : 6
                    },
                    "indices" : 7,
                    "material" : 1
                }
            ]
        },
        {
            "name" : "Circle.002",
            "primitives" : [
                {
                    "attributes" : {
                        "POSITION" : 8,
                        "NORMAL" : 9,
                        "TEXCOORD_0" : 10
                    },
                    "indices" : 11,
                    "material" : 2
                }
            ]
        },
        {
            "name" : "Cube.006",
            "primitives" : [
                {
                    "attributes" : {
                        "POSITION" : 12,
                        "NORMAL" : 13,
                        "TEXCOORD_0" : 14
                    },
                    "indices" : 15,
                    "material" : 3
                }
            ]
        }
    ],
    "textures" : [
        {
            "sampler" : 0,
            "source" : 0
        }
    ],
    "images" : [
        {
            "bufferView" : 8,
            "mimeType" : "image/png",
            "name" : "golf_grip"
        }
    ],
    "accessors" : [
        {
            "bufferView" : 0,
            "componentType" : 5126,
            "count" : 798,
            "max" : [
                0.05055999010801315,
                0.012155644595623016,
                0.015120012685656548
            ],
            "min" : [
                -0.02590203657746315,
                -0.05078376457095146,
                -0.004213093314319849
            ],
            "type" : "VEC3"
        },
        {
            "bufferView" : 1,
            "componentType" : 5126,
            "count" : 798,
            "type" : "VEC3"
        },
        {
            "bufferView" : 2,
            "componentType" : 5126,
            "count" : 798,
            "type" : "VEC2"
        },
        {
            "bufferView" : 3,
            "componentType" : 5123,
            "count" : 1362,
            "type" : "SCALAR"
        },
        {
            "bufferView" : 4,
            "componentType" : 5126,
            "count" : 66,
            "max" : [
                0.010477500967681408,
                0.2540000379085541,
                0.010477501899003983
            ],
            "min" : [
                -0.010477499105036259,
                0,
                -0.010477499105036259
            ],
            "type" : "VEC3"
        },
        {
            "bufferView" : 5,
            "componentType" : 5126,
            "count" : 66,
            "type" : "VEC3"
        },
        {
            "bufferView" : 6,
            "componentType" : 5126,
            "count" : 66,
            "type" : "VEC2"
        },
        {
            "bufferView" : 7,
            "componentType" : 5123,
            "count" : 384,
            "type" : "SCALAR"
        },
        {
            "bufferView" : 9,
            "componentType" : 5126,
            "count" : 706,
            "max" : [
                0.00634999992325902,
                0.6604000926017761,
                0.00634999992325902
            ],
            "min" : [
                -0.00634999992325902,
                0,
                -0.00634999992325902
            ],
            "type" : "VEC3"
        },
        {
            "bufferView" : 10,
            "componentType" : 5126,
            "count" : 706,
            "type" : "VEC3"
        },
        {
            "bufferView" : 11,
            "componentType" : 5126,
            "count" : 706,
            "type" : "VEC2"
        },
        {
            "bufferView" : 12,
            "componentType" : 5123,
            "count" : 4224,
            "type" : "SCALAR"
        },
        {
            "bufferView" : 13,
            "componentType" : 5126,
            "count" : 24,
            "max" : [
                0.009525001049041748,
                0.0031750015914440155,
                0.022224999964237213
            ],
            "min" : [
                -0.009525001049041748,
                -0.0031750015914440155,
                -0.022224999964237213
            ],
            "type" : "VEC3"
        },
        {
            "bufferView" : 14,
            "componentType" : 5126,
            "count" : 24,
            "type" : "VEC3"
        },
        {
            "bufferView" : 15,
            "componentType" : 5126,
            "count" : 24,
            "type" : "VEC2"
        },
        {
            "bufferView" : 16,
            "componentType" : 5123,
            "count" : 36,
            "type" : "SCALAR"
        }
    ],
    "bufferViews" : [
        {
            "buffer" : 0,
            "byteLength" : 9576,
            "byteOffset" : 0
        },
        {
            "buffer" : 0,
            "byteLength" : 9576,
            "byteOffset" : 9576
        },
        {
            "buffer" : 0,
            "byteLength" : 6384,
            "byteOffset" : 19152
        },
        {
            "buffer" : 0,
            "byteLength" : 2724,
            "byteOffset" : 25536
        },
        {
            "buffer" : 0,
            "byteLength" : 792,
            "byteOffset" : 28260
        },
        {
            "buffer" : 0,
            "byteLength" : 792,
            "byteOffset" : 29052
        },
        {
            "buffer" : 0,
            "byteLength" : 528,
            "byteOffset" : 29844
        },
        {
            "buffer" : 0,
            "byteLength" : 768,
            "byteOffset" : 30372
        },
        {
            "buffer" : 0,
            "byteLength" : 7010,
            "byteOffset" : 31140
        },
        {
            "buffer" : 0,
            "byteLength" : 8472,
            "byteOffset" : 38152
        },
        {
            "buffer" : 0,
            "byteLength" : 8472,
            "byteOffset" : 46624
        },
        {
            "buffer" : 0,
            "byteLength" : 5648,
            "byteOffset" : 55096
        },
        {
            "buffer" : 0,
            "byteLength" : 8448,
            "byteOffset" : 60744
        },
        {
            "buffer" : 0,
            "byteLength" : 288,
            "byteOffset" : 69192
        },
        {
            "buffer" : 0,
            "byteLength" : 288,
            "byteOffset" : 69480
        },
        {
            "buffer" : 0,
            "byteLength" : 192,
            "byteOffset" : 69768
        },
        {
            "buffer" : 0,
            "byteLength" : 72,
            "byteOffset" : 69960
        }
    ],
    "samplers" : [
        {
            "magFilter" : 9728,
            "minFilter" : 9984
        }
    ],
    "buffers" : [
        {
            "byteLength" : 70032,
            "uri" : "data:application/octet-stream;base64,"
        }
    ]
}
